<svg xmlns="http://www.w3.org/2000/svg" viewBox="0 0 1300 1400" font-family="'Microsoft YaHei', 'PingFang SC', Arial, sans-serif">
  <defs>
    <marker id="arrow" viewBox="0 0 10 10" refX="9" refY="5" markerWidth="7" markerHeight="7" orient="auto">
      <path d="M 0 0 L 10 5 L 0 10 z" fill="#666"/>
    </marker>
    <marker id="arr-b" viewBox="0 0 10 10" refX="9" refY="5" markerWidth="7" markerHeight="7" orient="auto">
      <path d="M 0 0 L 10 5 L 0 10 z" fill="#3498db"/>
    </marker>
    <marker id="arr-g" viewBox="0 0 10 10" refX="9" refY="5" markerWidth="7" markerHeight="7" orient="auto">
      <path d="M 0 0 L 10 5 L 0 10 z" fill="#27ae60"/>
    </marker>
    <marker id="arr-o" viewBox="0 0 10 10" refX="9" refY="5" markerWidth="7" markerHeight="7" orient="auto">
      <path d="M 0 0 L 10 5 L 0 10 z" fill="#e67e22"/>
    </marker>
    <filter id="sh">
      <feDropShadow dx="2" dy="2" stdDeviation="3" flood-opacity="0.15"/>
    </filter>
    <linearGradient id="g-front" x1="0" y1="0" x2="0" y2="1">
      <stop offset="0%" stop-color="#667eea"/><stop offset="100%" stop-color="#764ba2"/>
    </linearGradient>
    <linearGradient id="g-api" x1="0" y1="0" x2="0" y2="1">
      <stop offset="0%" stop-color="#2193b0"/><stop offset="100%" stop-color="#6dd5ed"/>
    </linearGradient>
    <linearGradient id="g-agent" x1="0" y1="0" x2="0" y2="1">
      <stop offset="0%" stop-color="#eb3349"/><stop offset="100%" stop-color="#f45c43"/>
    </linearGradient>
    <linearGradient id="g-rag" x1="0" y1="0" x2="0" y2="1">
      <stop offset="0%" stop-color="#11998e"/><stop offset="100%" stop-color="#38ef7d"/>
    </linearGradient>
    <linearGradient id="g-ex" x1="0" y1="0" x2="0" y2="1">
      <stop offset="0%" stop-color="#f093fb"/><stop offset="100%" stop-color="#f5576c"/>
    </linearGradient>
  </defs>

  <rect width="1300" height="1400" fill="#f0f2f5" rx="12"/>

  <!-- ===== 标题 ===== -->
  <text x="650" y="40" text-anchor="middle" font-size="24" font-weight="bold" fill="#2c3e50">识渊 AI · 系统架构详图</text>
  <text x="650" y="62" text-anchor="middle" font-size="13" fill="#7f8c8d">FastAPI + Vue 3 + LangGraph + FAISS + BM25 · AI 智能内容工作台</text>

  <!-- ================================================================ -->
  <!-- 分区 1: 前端层 -->
  <!-- ================================================================ -->
  <rect x="30" y="80" width="290" height="400" rx="12" fill="#eef1ff" stroke="#667eea" stroke-width="1.5" stroke-dasharray="6,3"/>
  <text x="175" y="105" text-anchor="middle" font-size="14" font-weight="bold" fill="#667eea">🎨 前端层 (Vue 3 + TypeScript)</text>

  <rect x="50" y="120" width="250" height="35" rx="6" fill="url(#g-front)" filter="url(#sh)"/>
  <text x="175" y="143" text-anchor="middle" font-size="12" fill="#fff" font-weight="bold">📄 页面</text>

  <rect x="50" y="165" width="80" height="28" rx="5" fill="#fff" stroke="#667eea" stroke-width="1"/>
  <text x="90" y="183" text-anchor="middle" font-size="10" fill="#667eea">HomeView</text>
  <rect x="138" y="165" width="80" height="28" rx="5" fill="#fff" stroke="#667eea" stroke-width="1"/>
  <text x="178" y="183" text-anchor="middle" font-size="10" fill="#667eea">NewsView</text>
  <rect x="226" y="165" width="74" height="28" rx="5" fill="#fff" stroke="#667eea" stroke-width="1"/>
  <text x="263" y="183" text-anchor="middle" font-size="10" fill="#667eea">KBView</text>

  <rect x="50" y="205" width="250" height="35" rx="6" fill="url(#g-front)" filter="url(#sh)"/>
  <text x="175" y="228" text-anchor="middle" font-size="12" fill="#fff" font-weight="bold">🧩 核心组件</text>

  <text x="60" y="255" font-size="10" fill="#555">FloatingAgent · NewsList · NewsDetail</text>
  <text x="60" y="272" font-size="10" fill="#555">GeneratePanel · PublishPanel · TaskPanel</text>
  <text x="60" y="289" font-size="10" fill="#555">KBFilePanel · KBChatPanel · KBActionPanel</text>
  <text x="60" y="306" font-size="10" fill="#555">WechatImageOptions · KeywordSettings</text>

  <rect x="50" y="320" width="250" height="35" rx="6" fill="url(#g-front)" filter="url(#sh)"/>
  <text x="175" y="343" text-anchor="middle" font-size="12" fill="#fff" font-weight="bold">🔧 基础设施</text>

  <text x="60" y="370" font-size="10" fill="#555">Pinia 状态管理 · Vue Router 路由</text>
  <text x="60" y="387" font-size="10" fill="#555">SSE 流式消费器 (consumeAgentSSE)</text>
  <text x="60" y="404" font-size="10" fill="#555">Axios HTTP · API 客户端</text>
  <text x="60" y="421" font-size="10" fill="#555">useWechatPublish (Composable)</text>
  <text x="60" y="438" font-size="10" fill="#555">TypeScript 类型定义</text>

  <rect x="50" y="450" width="250" height="22" rx="5" fill="#eee" stroke="#ccc" stroke-width="1"/>
  <text x="175" y="465" text-anchor="middle" font-size="10" fill="#888">端口 :5173 ｜ 构建: Vite</text>

  <!-- ================================================================ -->
  <!-- 分区 2: 后端 API 层 -->
  <!-- ================================================================ -->
  <rect x="350" y="80" width="290" height="400" rx="12" fill="#e8f8f5" stroke="#2193b0" stroke-width="1.5" stroke-dasharray="6,3"/>
  <text x="495" y="105" text-anchor="middle" font-size="14" font-weight="bold" fill="#2193b0">⚡ 后端 (FastAPI · 端口 :8000)</text>

  <rect x="370" y="120" width="250" height="35" rx="6" fill="url(#g-api)" filter="url(#sh)"/>
  <text x="495" y="143" text-anchor="middle" font-size="12" fill="#fff" font-weight="bold">📡 API 路由层</text>

  <rect x="370" y="165" width="120" height="22" rx="4" fill="#d5f5e3"/>
  <text x="430" y="180" text-anchor="middle" font-size="9" fill="#1a7a3a">agent.py · Agent 对话</text>
  <rect x="500" y="165" width="120" height="22" rx="4" fill="#d5f5e3"/>
  <text x="560" y="180" text-anchor="middle" font-size="9" fill="#1a7a3a">news.py · 新闻</text>

  <rect x="370" y="192" width="120" height="22" rx="4" fill="#d5f5e3"/>
  <text x="430" y="207" text-anchor="middle" font-size="9" fill="#1a7a3a">knowledge.py · 知识库</text>
  <rect x="500" y="192" width="120" height="22" rx="4" fill="#d5f5e3"/>
  <text x="560" y="207" text-anchor="middle" font-size="9" fill="#1a7a3a">conversations.py</text>

  <rect x="370" y="219" width="120" height="22" rx="4" fill="#d5f5e3"/>
  <text x="430" y="234" text-anchor="middle" font-size="9" fill="#1a7a3a">interpret.py · 解读</text>
  <rect x="500" y="219" width="120" height="22" rx="4" fill="#d5f5e3"/>
  <text x="560" y="234" text-anchor="middle" font-size="9" fill="#1a7a3a">publish.py · 发布</text>

  <rect x="370" y="246" width="120" height="22" rx="4" fill="#d5f5e3"/>
  <text x="430" y="261" text-anchor="middle" font-size="9" fill="#1a7a3a">tasks.py · 异步任务</text>
  <rect x="500" y="246" width="120" height="22" rx="4" fill="#d5f5e3"/>
  <text x="560" y="261" text-anchor="middle" font-size="9" fill="#1a7a3a">schedule.py</text>

  <rect x="370" y="273" width="120" height="22" rx="4" fill="#d5f5e3"/>
  <text x="430" y="288" text-anchor="middle" font-size="9" fill="#1a7a3a">keywords.py</text>
  <rect x="500" y="273" width="120" height="22" rx="4" fill="#d5f5e3"/>
  <text x="560" y="288" text-anchor="middle" font-size="9" fill="#1a7a3a">prompts.py · 提示词</text>

  <rect x="370" y="305" width="250" height="22" rx="4" fill="#d5f5e3"/>
  <text x="495" y="320" text-anchor="middle" font-size="9" fill="#1a7a3a">deps.py · 依赖注入 + 共享状态</text>

  <!-- 配置层 -->
  <rect x="370" y="340" width="250" height="35" rx="6" fill="url(#g-api)" filter="url(#sh)"/>
  <text x="495" y="363" text-anchor="middle" font-size="12" fill="#fff" font-weight="bold">⚙️ 配置 &amp; 提示词</text>

  <text x="380" y="390" font-size="10" fill="#555">config.py · 5级Temperature · 模型 · 阈值</text>
  <text x="380" y="407" font-size="10" fill="#555">prompts.py · 15+ 提示词 · PromptManager</text>
  <text x="380" y="424" font-size="10" fill="#555">app.py · lifespan · 健康检查 · CORS</text>
  <text x="380" y="441" font-size="10" fill="#555">database.py · 连接池 · WAL · 8+ 表</text>

  <rect x="370" y="455" width="250" height="20" rx="5" fill="#eee" stroke="#ccc" stroke-width="1"/>
  <text x="495" y="469" text-anchor="middle" font-size="10" fill="#888">等待 NewsNow 就绪 · 自动降级</text>

  <!-- 前端 → 后端箭头 -->
  <line x1="320" y1="135" x2="365" y2="135" stroke="#3498db" stroke-width="2" marker-end="url(#arr-b)"/>
  <text x="335" y="128" font-size="10" fill="#3498db">HTTP / SSE</text>

  <!-- ================================================================ -->
  <!-- 分区 3: Agent 模块 -->
  <!-- ================================================================ -->
  <rect x="30" y="500" width="380" height="430" rx="12" fill="#fff5f5" stroke="#eb3349" stroke-width="2"/>
  <text x="220" y="525" text-anchor="middle" font-size="15" font-weight="bold" fill="#eb3349">🤖 AI Agent 内部流程</text>

  <!-- Agent 框架 -->
  <rect x="50" y="540" width="340" height="35" rx="6" fill="url(#g-agent)" filter="url(#sh)"/>
  <text x="220" y="563" text-anchor="middle" font-size="12" fill="#fff" font-weight="bold">LangGraph create_agent 框架</text>

  <!-- Flow: LLM → 工具选择 → 执行 → 回复 -->
  <rect x="50" y="585" width="340" height="60" rx="6" fill="#fff" stroke="#eb3349" stroke-width="1" stroke-dasharray="4,2"/>
  <text x="220" y="605" text-anchor="middle" font-size="11" fill="#c0392b" font-weight="bold">Agent 工作循环 (最多 5 轮)</text>
  <text x="70" y="625" font-size="10" fill="#555">LLM(deepseek-v4-flash) → 工具决策 → 调用 → 结果注入 → LLM 回复</text>

  <!-- 工具列表 -->
  <rect x="50" y="655" width="160" height="185" rx="6" fill="#fef9e7" stroke="#f1c40f" stroke-width="1"/>
  <text x="130" y="675" text-anchor="middle" font-size="11" fill="#d4ac0d" font-weight="bold">🔧 Agent 工具</text>
  <text x="58" y="695" font-size="10" fill="#555">① refresh_news</text>
  <text x="58" y="712" font-size="10" fill="#555">② refresh_source</text>
  <text x="58" y="729" font-size="10" fill="#555">③ get_trends</text>
  <text x="58" y="746" font-size="10" fill="#555">④ search_news</text>
  <text x="58" y="763" font-size="10" fill="#555">⑤ compare_sources</text>
  <text x="58" y="780" font-size="10" fill="#555">⑥ get_news_content</text>
  <text x="58" y="797" font-size="10" fill="#555">⑦ get_briefing_data</text>
  <text x="58" y="814" font-size="10" fill="#555">⑧ search_knowledge_base</text>
  <text x="58" y="831" font-size="10" fill="#555">⑨ web_search</text>

  <rect x="230" y="655" width="160" height="185" rx="6" fill="#eaf2f8" stroke="#3498db" stroke-width="1"/>
  <text x="310" y="675" text-anchor="middle" font-size="11" fill="#2980b9" font-weight="bold">🧠 短期记忆系统</text>
  <text x="240" y="698" font-size="10" fill="#555">SummarizationMiddleware</text>
  <text x="240" y="718" font-size="10" fill="#555">触发: &gt;80K tokens</text>
  <text x="240" y="738" font-size="10" fill="#555">保留: 最近 10 条消息</text>
  <text x="240" y="758" font-size="10" fill="#555">压缩: SUMMARY_MODEL</text>
  <text x="240" y="778" font-size="10" fill="#555">(deepseek-v4-flash)</text>
  <text x="240" y="798" font-size="10" fill="#555">Temperature: 0.3</text>
  <text x="240" y="818" font-size="10" fill="#555">输出: ~300字中文摘要</text>

  <!-- 持久化 -->
  <rect x="50" y="850" width="340" height="30" rx="6" fill="#2c3e50" filter="url(#sh)"/>
  <text x="220" y="870" text-anchor="middle" font-size="11" fill="#fff">AsyncSqliteSaver · agent_memory.db (conversations + messages + checkpoints)</text>

  <rect x="50" y="890" width="340" height="30" rx="6" fill="#fdfefe" stroke="#eb3349" stroke-width="1"/>
  <text x="220" y="910" text-anchor="middle" font-size="11" fill="#c0392b">提示词三层拆分：角色 → 工具 → 规则</text>

  <!-- ================================================================ -->
  <!-- 分区 4: RAG 模块 -->
  <!-- ================================================================ -->
  <rect x="440" y="500" width="410" height="430" rx="12" fill="#f0fff4" stroke="#27ae60" stroke-width="2"/>
  <text x="645" y="525" text-anchor="middle" font-size="15" font-weight="bold" fill="#27ae60">📚 KB RAG 内部流程</text>

  <rect x="460" y="540" width="370" height="30" rx="6" fill="url(#g-rag)" filter="url(#sh)"/>
  <text x="645" y="560" text-anchor="middle" font-size="12" fill="#fff" font-weight="bold">LangGraph StateGraph · 3 节点编排</text>

  <!-- Node 1: rewrite_query -->
  <rect x="460" y="580" width="370" height="90" rx="6" fill="#fff" stroke="#27ae60" stroke-width="1"/>
  <text x="645" y="600" text-anchor="middle" font-size="12" fill="#1e8449" font-weight="bold">Node 1: rewrite_query (查询重写)</text>
  <line x1="490" y1="610" x2="800" y2="610" stroke="#27ae60" stroke-width="0.5"/>
  <text x="470" y="628" font-size="10" fill="#555">① 规则前置过滤：代词(它/那/这) · 短句(&lt;15字) · 祈使句(详细/展开)</text>
  <text x="470" y="645" font-size="10" fill="#555">② LLM 分类：new_question / follow_up_need_search / follow_up_no_search</text>
  <text x="470" y="662" font-size="10" fill="#555">   80% 请求规则直接跳过 ✅ 零 LLM 调用</text>

  <line x1="645" y1="670" x2="645" y2="680" stroke="#27ae60" stroke-width="1.5" marker-end="url(#arr-g)"/>

  <!-- Node 2: retrieve -->
  <rect x="460" y="680" width="370" height="90" rx="6" fill="#fff" stroke="#27ae60" stroke-width="1"/>
  <text x="645" y="700" text-anchor="middle" font-size="12" fill="#1e8449" font-weight="bold">Node 2: retrieve (条件检索)</text>
  <line x1="490" y1="710" x2="800" y2="710" stroke="#27ae60" stroke-width="0.5"/>
  <text x="470" y="728" font-size="10" fill="#555">follow_up_no_search → 跳过检索，复用 last_context</text>
  <text x="470" y="745" font-size="10" fill="#555">否则 → 前置过滤 FAISS 搜索 + BM25 关键词 → RRF 融合</text>
  <text x="470" y="762" font-size="10" fill="#555">summary 意图 → top_k ×3 + 注入文档元信息</text>

  <line x1="645" y1="770" x2="645" y2="780" stroke="#27ae60" stroke-width="1.5" marker-end="url(#arr-g)"/>

  <!-- Node 3: generate -->
  <rect x="460" y="780" width="370" height="70" rx="6" fill="#fff" stroke="#27ae60" stroke-width="1"/>
  <text x="645" y="800" text-anchor="middle" font-size="12" fill="#1e8449" font-weight="bold">Node 3: generate (LLM 生成)</text>
  <line x1="490" y1="810" x2="800" y2="810" stroke="#27ae60" stroke-width="0.5"/>
  <text x="470" y="828" font-size="10" fill="#555">策略 B：检索内容不入历史（临时注入 SystemMessage）</text>
  <text x="470" y="845" font-size="10" fill="#555">SummarizationMiddleware (&gt;50K tokens) → SSE astream → 前端</text>

  <rect x="460" y="860" width="370" height="25" rx="5" fill="#2c3e50" filter="url(#sh)"/>
  <text x="645" y="877" text-anchor="middle" font-size="10" fill="#fff">rag_memory.db · kb_chunk_doc_map.json · 截断保护 15K</text>

  <rect x="460" y="895" width="370" height="25" rx="5" fill="#fdfefe" stroke="#27ae60" stroke-width="1"/>
  <text x="645" y="912" text-anchor="middle" font-size="10" fill="#1e8449">query_classify 节点 + 元信息注入 + 追问意图继承</text>

  <!-- ================================================================ -->
  <!-- 分区 5: 辅助模块 + 外部服务 -->
  <!-- ================================================================ -->
  <rect x="880" y="80" width="390" height="250" rx="12" fill="#fef0f0" stroke="#f5576c" stroke-width="1.5" stroke-dasharray="6,3"/>
  <text x="1075" y="105" text-anchor="middle" font-size="14" font-weight="bold" fill="#f5576c">🌐 外部服务 / 基础设施</text>

  <!-- LLM -->
  <rect x="900" y="120" width="350" height="35" rx="6" fill="url(#g-ex)" filter="url(#sh)"/>
  <text x="1075" y="143" text-anchor="middle" font-size="12" fill="#fff" font-weight="bold">🧠 LLM 模型</text>
  <text x="910" y="165" font-size="10" fill="#555">DeepSeek (deepseek-v4-flash) · DashScope (qwen-image, qwen-vl-ocr)</text>

  <!-- Search -->
  <rect x="900" y="175" width="350" height="35" rx="6" fill="#3498db" filter="url(#sh)"/>
  <text x="1075" y="198" text-anchor="middle" font-size="12" fill="#fff" font-weight="bold">🔎 搜索引擎</text>
  <text x="910" y="220" font-size="10" fill="#555">Tavily Search API · Kimi $web_search（双引擎运行时切换）</text>

  <!-- NewsNow -->
  <rect x="900" y="230" width="350" height="35" rx="6" fill="#e67e22" filter="url(#sh)"/>
  <text x="1075" y="253" text-anchor="middle" font-size="12" fill="#fff" font-weight="bold">🌐 NewsNow 中台</text>
  <text x="910" y="275" font-size="10" fill="#555">Docker :4444 · ghcr.io/ourongxing/newsnow · 9 平台聚合</text>

  <!-- Publishing -->
  <rect x="900" y="280" width="350" height="40" rx="6" fill="#8e44ad" filter="url(#sh)"/>
  <text x="1075" y="298" text-anchor="middle" font-size="12" fill="#fff" font-weight="bold">📱 发布平台</text>
  <text x="910" y="315" font-size="10" fill="#555">微信公众号 (API) · 小红书 (Playwright) · 抖音 (Playwright)</text>

  <!-- ================================================================ -->
  <!-- 存储层 -->
  <!-- ================================================================ -->
  <rect x="880" y="350" width="390" height="130" rx="12" fill="#f4f6f7" stroke="#bdc3c7" stroke-width="1.5" stroke-dasharray="6,3"/>
  <text x="1075" y="375" text-anchor="middle" font-size="14" font-weight="bold" fill="#5d6d7e">💾 存储层</text>

  <rect x="900" y="390" width="170" height="35" rx="5" fill="#34495e" filter="url(#sh)"/>
  <text x="985" y="413" text-anchor="middle" font-size="11" fill="#fff">news_ai.db (主库)</text>

  <rect x="1085" y="390" width="170" height="35" rx="5" fill="#34495e" filter="url(#sh)"/>
  <text x="1170" y="413" text-anchor="middle" font-size="11" fill="#fff">agent_memory.db</text>

  <rect x="900" y="435" width="170" height="35" rx="5" fill="#2c3e50" filter="url(#sh)"/>
  <text x="985" y="458" text-anchor="middle" font-size="11" fill="#fff">FAISS 向量索引</text>

  <rect x="1085" y="435" width="170" height="35" rx="5" fill="#2c3e50" filter="url(#sh)"/>
  <text x="1170" y="458" text-anchor="middle" font-size="11" fill="#fff">BM25 (内存懒加载)</text>

  <!-- ================================================================ -->
  <!-- 辅助模块 -->
  <!-- ================================================================ -->
  <rect x="880" y="500" width="390" height="200" rx="12" fill="#fef9e7" stroke="#f1c40f" stroke-width="1.5" stroke-dasharray="6,3"/>
  <text x="1075" y="525" text-anchor="middle" font-size="14" font-weight="bold" fill="#d4ac0d">🕷️ 辅助模块</text>

  <!-- 爬虫 -->
  <rect x="900" y="540" width="350" height="35" rx="6" fill="#f39c12" filter="url(#sh)"/>
  <text x="1075" y="563" text-anchor="middle" font-size="12" fill="#fff" font-weight="bold">🕷️ 新闻爬虫</text>
  <text x="910" y="585" font-size="10" fill="#555">NewsNow (Docker :4444) · RSS (feedparser) · 关键词过滤 · 自动降级</text>

  <!-- 发布器 -->
  <rect x="900" y="595" width="350" height="35" rx="6" fill="#8e44ad" filter="url(#sh)"/>
  <text x="1075" y="618" text-anchor="middle" font-size="12" fill="#fff" font-weight="bold">📤 发布模块</text>
  <text x="910" y="640" font-size="10" fill="#555">Cookie 持久化 · per-platform Lock · 进度回调 · AI 配图(封面+章节)</text>

  <!-- 异步任务 -->
  <rect x="900" y="650" width="350" height="40" rx="6" fill="#1abc9c" filter="url(#sh)"/>
  <text x="1075" y="668" text-anchor="middle" font-size="12" fill="#fff" font-weight="bold">⏱️ 异步任务系统</text>
  <text x="910" y="686" font-size="10" fill="#555">TaskManager · pub/sub · SSE 进度流 · 30s 心跳</text>

  <!-- ================================================================ -->
  <!-- 箭头：后端 → 外部 -->
  <!-- ================================================================ -->
  <line x1="410" y1="575" x2="895" y2="155" stroke="#e67e22" stroke-width="2" marker-end="url(#arr-o)" stroke-dasharray="8,4"/>
  <text x="620" y="360" font-size="10" fill="#e67e22">LLM 推理 / Embedding / ImageGen</text>

  <!-- ================================================================ -->
  <!-- 底部: 面试知识点 -->
  <!-- ================================================================ -->
  <rect x="30" y="950" width="1240" height="430" rx="12" fill="#fafafa" stroke="#ddd" stroke-width="1"/>
  <text x="650" y="980" text-anchor="middle" font-size="18" font-weight="bold" fill="#2c3e50">🔑 面试知识点深度映射</text>

  <!-- 左列 -->
  <rect x="50" y="1000" width="385" height="170" rx="8" fill="#fff5f5" stroke="#eb3349" stroke-width="1"/>
  <text x="242" y="1025" text-anchor="middle" font-size="14" font-weight="bold" fill="#eb3349">🤖 Agent 篇</text>
  <text x="65" y="1050" font-size="11" fill="#555">1. LangGraph 状态图 vs 手写循环 → 持久化 &amp; 回溯</text>
  <text x="65" y="1072" font-size="11" fill="#555">2. SummarizationMiddleware → 80K token 触发策略</text>
  <text x="65" y="1094" font-size="11" fill="#555">3. 双引擎搜索架构 → Tavily (确定性) vs Kimi (深度推理)</text>
  <text x="65" y="1116" font-size="11" fill="#555">4. 提示词三层拆分 → 角色/工具/规则独立演进</text>
  <text x="65" y="1138" font-size="11" fill="#555">5. 高层工具封装 → generate_article 一步代替两步</text>
  <text x="65" y="1160" font-size="11" fill="#555">6. SSE 扩展协议 → 7种事件类型</text>

  <rect x="50" y="1185" width="385" height="90" rx="8" fill="#fffde7" stroke="#f1c40f" stroke-width="1"/>
  <text x="242" y="1210" text-anchor="middle" font-size="13" font-weight="bold" fill="#f39c12">⚙️ 生产级改造</text>
  <text x="65" y="1235" font-size="11" fill="#555">Embedding 同步→异步(asyncio.to_thread) · N+1→批量IN</text>
  <text x="65" y="1257" font-size="11" fill="#555">FAISS per-kb Lock · SQLite 连接池+WAL · 令牌桶限流</text>

  <rect x="50" y="1290" width="385" height="75" rx="8" fill="#e8f4fd" stroke="#3498db" stroke-width="1"/>
  <text x="242" y="1315" text-anchor="middle" font-size="13" font-weight="bold" fill="#3498db">🔧 工程能力</text>
  <text x="65" y="1340" font-size="11" fill="#555">FastAPI lifespan · CORS可配置 · 上传20MB · Temperature策略化</text>
  <text x="65" y="1362" font-size="11" fill="#555">Docker 容器化 · 启动健康检查 · 自动降级</text>

  <!-- 右列 -->
  <rect x="460" y="1000" width="385" height="170" rx="8" fill="#f0fff4" stroke="#27ae60" stroke-width="1"/>
  <text x="652" y="1025" text-anchor="middle" font-size="14" font-weight="bold" fill="#27ae60">📚 RAG 篇</text>
  <text x="475" y="1050" font-size="11" fill="#555">1. 前置过滤 → chunk_doc_map + reconstruct_n 子空间搜索</text>
  <text x="475" y="1072" font-size="11" fill="#555">2. 混合检索 → FAISS 向量 + BM25 关键词 → RRF 融合(k=60)</text>
  <text x="475" y="1094" font-size="11" fill="#555">3. 查询意图分类 → 规则分类(specific/summary) → top_k ×3</text>
  <text x="475" y="1116" font-size="11" fill="#555">4. 策略 B → 检索内容不入历史, 临时注入 SystemMessage</text>
  <text x="475" y="1138" font-size="11" fill="#555">5. 追问处理 → 规则前置+LLM消解 → 条件检索</text>
  <text x="475" y="1160" font-size="11" fill="#555">6. RRF vs 加权求和 → 分数尺度不一致问题</text>

  <rect x="460" y="1185" width="385" height="90" rx="8" fill="#f4ecf7" stroke="#8e44ad" stroke-width="1"/>
  <text x="652" y="1210" text-anchor="middle" font-size="13" font-weight="bold" fill="#8e44ad">🔄 版本演进故事</text>
  <text x="475" y="1235" font-size="11" fill="#555">v1 MVP: 单知识库·全局FAISS·无记忆·后置过滤</text>
  <text x="475" y="1257" font-size="11" fill="#555">v2: 多KB+per-KB FAISS·会话管理·文档CRUD</text>
  <text x="475" y="1279" font-size="11" fill="#555">v3: LangGraph编排+混合检索+前置过滤+生产级</text>

  <!-- 右侧 -->
  <rect x="870" y="1000" width="385" height="170" rx="8" fill="#fef9e7" stroke="#f1c40f" stroke-width="1"/>
  <text x="1062" y="1025" text-anchor="middle" font-size="13" font-weight="bold" fill="#d4ac0d">💡 综合问答</text>
  <text x="885" y="1050" font-size="11" fill="#555">Q: 为什么选LangGraph？A: 状态持久化+回溯+标准工具节点</text>
  <text x="885" y="1072" font-size="11" fill="#555">Q: 为什么RAG+Agent记忆分开？A: 对话模式不同</text>
  <text x="885" y="1094" font-size="11" fill="#555">Q: 前/后置过滤怎么选？A: 小规模前置OK, 大规模→Milvus</text>
  <text x="885" y="1116" font-size="11" fill="#555">Q: 效果怎么评估？A: 无标准eval→规则+人工采点</text>
  <text x="885" y="1138" font-size="11" fill="#555">Q: 百万文档怎么办？A: 迁移Milvus·BM25持久化·层级摘要</text>
  <text x="885" y="1160" font-size="11" fill="#555">Q: 为什么SSE不用WS？A: 单向流·兼容代理·自动重连</text>

  <rect x="870" y="1185" width="385" height="90" rx="8" fill="#fdfefe" stroke="#bdc3c7" stroke-width="1"/>
  <text x="1062" y="1210" text-anchor="middle" font-size="13" font-weight="bold" fill="#5d6d7e">📊 项目数据</text>
  <text x="885" y="1235" font-size="11" fill="#555">后端: 8,906 行 / 43 文件  前端: 7,261 行 / 22 文件</text>
  <text x="885" y="1257" font-size="11" fill="#555">Git: 10 个 commit  面试复盘: 7 份文档</text>
  <text x="885" y="1279" font-size="11" fill="#555">首次求职方向: AI 应用开发工程师</text>

  <!-- 底部文字 -->
  <text x="650" y="1390" text-anchor="middle" font-size="11" fill="#95a5a6">shiyuan-ai · 识渊智能内容工作台 · 2026-06</text>
</svg>
